# xmcd
#
# Track frame offsets: 
#        150
#        18284
#        40977
#        54740
#        73051
#        92168
#        106367
#        133950
#        152749
#        179865
#
# Disc length: 2770 seconds
#
# Revision: 0
# Processed by: cddbd v1.5.2PL0 Copyright (c) Steve Scherf et al.
# Submitted via: ExactAudioCopy v0.99pb2
#
DISCID=920ad00a
DTITLE=Jackie Greene - Till the Light Comes
DYEAR=2010
DGENRE=Folk/Rock
TTITLE0=Shaky Ground
TTITLE1=Stranger in Sand
TTITLE2=Medicine
TTITLE3=Grindstone
TTITLE4=A Moment of Temporary Color
TTITLE5=Spooky Tina
TTITLE6=1961
TTITLE7=Take Me Back in Time
TTITLE8=The Holy Land
TTITLE9=Till the Light Comes
EXTD=
EXTT0=
EXTT1=
EXTT2=
EXTT3=
EXTT4=
EXTT5=
EXTT6=
EXTT7=
EXTT8=
EXTT9=
PLAYORDER=
